# xmcd
#
# Track frame offsets: 
#        150
#        13722
#        23495
#        31770
#        43312
#        54052
#        65455
#        76920
#        90492
#        104035
#        118997
#        131272
#        140372
#        152992
#        161415
#        170467
#        185152
#
# Disc length: 2654 seconds
#
# Revision: 2
# Processed by: cddbd v1.5.2PL0 Copyright (c) Steve Scherf et al.
# Submitted via: ExactAudioCopy v0.99pb3
#
DISCID=d90a5c11
DTITLE=Willie Nelson - Willie Nelson Cd2
DYEAR=2001
DGENRE=
TTITLE0=You'll Always Have Someone
TTITLE1=Let's Pretend
TTITLE2=You Wouldn't Cross The Street To Say Goodbye
TTITLE3=Is There Something On Your Mind
TTITLE4=I Feel Sorry For Him
TTITLE5=I'm Going To Lose A Lot Of Teardrops
TTITLE6=Suffering In Silence
TTITLE7=The Last Letter
TTITLE8=Everything But You
TTITLE9=Face Of A Fighter
TTITLE10=I Can't Find The Time
TTITLE11=Right From Wrong
TTITLE12=She's Not For You
TTITLE13=Slow Down Old World
TTITLE14=Waiting Time
TTITLE15=What Can You Do To Me Now
TTITLE16=Will You Remember Mine
EXTD=
EXTT0=
EXTT1=
EXTT2=
EXTT3=
EXTT4=
EXTT5=
EXTT6=
EXTT7=
EXTT8=
EXTT9=
EXTT10=
EXTT11=
EXTT12=
EXTT13=
EXTT14=
EXTT15=
EXTT16=
PLAYORDER=
